<svg xmlns="http://www.w3.org/2000/svg" width="24" height="24" fill="none" viewBox="0 0 24 24"><path fill="#01579B" d="M6.66994 17.3279L3.59227 14.2494C3.22739 13.8739 3 13.3449 3 12.8279C3 12.5885 3.13485 12.2143 3.23664 11.9988L6.07768 6.07855L6.66994 17.3279Z"/><path fill="#40C4FF" d="M17.2066 6.67088L14.1289 3.59242C13.8605 3.32266 13.3 3 12.8267 3C12.4195 3 12.0203 3.08199 11.7612 3.2367L6.0791 6.07846L17.2066 6.67088Z"/><path fill="#40C4FF" d="M10.3389 20.9986H17.7978V17.8011L12.2334 16.0252L7.14355 17.8011L10.3389 20.9986Z"/><path fill="#29B6F6" d="M6.0791 15.6709C6.0791 16.6204 6.19808 16.8544 6.67137 17.3291L7.14465 17.8025H17.7989L12.5901 11.8823L6.0791 6.0798V15.6709Z"/><path fill="#01579B" d="M15.5491 6.07855H6.07812L17.7979 17.8013H20.9945V10.4595L17.2069 6.67097C16.6755 6.13674 16.2022 6.07855 15.5491 6.07855Z"/><path fill="#fff" d="M6.78938 17.4469C6.31609 16.9709 6.19711 16.5027 6.19711 15.671V6.19756L6.07812 6.07855V15.6696C6.07945 16.5027 6.07945 16.7328 6.78938 17.4469L7.145 17.8026L6.78938 17.4469Z" opacity=".2"/><path fill="#263238" d="M20.8763 10.3419V17.6836H17.6797L17.7987 17.8013H20.9953V10.4609L20.8763 10.3419Z" opacity=".2"/><path fill="#fff" d="M17.2066 6.67097C16.6196 6.08384 16.1384 6.07855 15.4311 6.07855H6.0791L6.19808 6.19756H15.4324C15.7841 6.19756 16.6765 6.13806 17.2066 6.67097Z" opacity=".2"/><path fill="url(#paint0_radial_2689_27562)" d="M20.8771 10.3418L17.2071 6.67088L14.1294 3.59242C13.8611 3.32266 13.3005 3 12.8273 3C12.4201 3 12.0208 3.08199 11.7617 3.2367L6.07963 6.07846L3.2386 11.9987C3.1368 12.2142 3.00195 12.5885 3.00195 12.8278C3.00195 13.3448 3.22934 13.8738 3.59422 14.2493L6.43129 17.066C6.49871 17.1493 6.57803 17.2339 6.67322 17.3278L6.7922 17.4468L7.14783 17.8025L10.2255 20.881L10.3445 21H17.6844H17.8034V17.8025H21V17.7946V10.4608L20.8771 10.3418Z" opacity=".2"/><defs><radialGradient id="paint0_radial_2689_27562" cx="0" cy="0" r="1" gradientTransform="translate(12.0003 11.9995) scale(8.99837 9.00066)" gradientUnits="userSpaceOnUse"><stop stop-color="#fff" stop-opacity=".1"/><stop offset="1" stop-color="#fff" stop-opacity="0"/></radialGradient></defs></svg>